<svg xmlns="http://www.w3.org/2000/svg" width="100" height="100" fill="none"><path fill="#000" d="M27.997 100H1.389c-.366 0-.804-.15-1.024-.45C.073 99.252 0 98.803 0 98.429l.585-5.539c.073-2.47 1.973-4.416 4.386-4.416h5.774v-1.422c-2.412-1.797-3.947-5.24-3.947-9.057v-.973c.073-1.123.292-2.246.658-3.293 1.243-3.743 4.02-6.138 7.164-6.138 3.07 0 5.848 2.395 7.164 6.138.292.823.438 1.646.584 2.544.073.6.147 1.198.147 1.722 0 3.668-1.463 7.11-3.802 8.907v1.497h5.775a4.388 4.388 0 0 1 4.386 4.416l.585 5.54c.073.374-.073.823-.366 1.122-.292.3-.657.524-1.096.524Zm-25-2.92h23.465l-.439-3.966v-.15c0-.898-.73-1.647-1.608-1.647h-7.164c-.804 0-1.389-.673-1.389-1.422v-3.742c0-.524.293-.973.658-1.273 1.9-1.197 3.144-3.892 3.144-6.96 0-.45 0-.9-.074-1.348a8.367 8.367 0 0 0-.438-1.946c-.877-2.545-2.632-4.192-4.46-4.192-1.827 0-3.58 1.647-4.458 4.192-.292.823-.439 1.721-.512 2.545v.748c0 3.069 1.316 5.913 3.216 7.036.439.225.731.749.731 1.273v3.667c0 .824-.657 1.422-1.388 1.422H5.117c-.877 0-1.608.749-1.608 1.647v.15l-.512 3.967ZM97.369 99.925h-24.78c-.44 0-.805-.15-1.024-.449-.293-.3-.366-.748-.366-1.123l.585-5.09c.073-2.32 1.9-4.191 4.24-4.191h5.263v-1.123c-2.266-1.721-3.655-4.94-3.655-8.458v-.898c.073-1.048.292-2.096.585-3.144 1.17-3.518 3.8-5.763 6.725-5.763 2.924 0 5.556 2.245 6.725 5.763.293.749.439 1.572.512 2.395.073.6.073 1.123.073 1.647 0 3.443-1.39 6.587-3.582 8.383v1.273h5.263c2.266 0 4.167 1.87 4.24 4.191l.585 5.09c.073.374-.073.823-.366 1.123-.22.224-.585.374-1.023.374Zm-23.173-2.844h21.638l-.366-3.593v-.15c0-.748-.585-1.422-1.389-1.422h-6.652c-.804 0-1.389-.673-1.389-1.422v-3.443c0-.524.293-.973.658-1.273 1.755-1.047 2.851-3.592 2.851-6.362 0-.374 0-.823-.073-1.272-.073-.599-.22-1.273-.439-1.797-.804-2.32-2.339-3.817-4.093-3.817-1.681 0-3.29 1.497-4.094 3.817a6.62 6.62 0 0 0-.438 2.395v.674c0 2.844 1.17 5.39 2.997 6.437.438.225.73.749.73 1.273v3.368c0 .823-.657 1.422-1.388 1.422h-6.652c-.731 0-1.39.599-1.39 1.422v.15l-.51 3.593ZM98.61 53.892c-.803 0-1.388-.673-1.388-1.422 0-23.129-18.348-41.916-40.936-41.916H45.614c-22.588 0-40.936 18.787-40.936 41.916 0 .824-.658 1.422-1.389 1.422-.804 0-1.39-.673-1.39-1.422 0-24.7 19.592-44.76 43.715-44.76h10.672C80.41 7.71 100 27.77 100 52.47c0 .749-.585 1.422-1.39 1.422Z"/><path fill="#000" d="M98.391 53.743c-.292 0-.657-.075-.877-.3l-3.581-3.069c-6.58-5.613-16.156-5.613-22.661 0l-3.583 3.07c-.511.448-1.315.448-1.827 0l-3.582-3.07c-6.579-5.613-16.155-5.613-22.66 0l-3.582 3.07c-.512.448-1.316.448-1.828 0l-3.582-3.07a17.45 17.45 0 0 0-22.734 0l-3.582 3.07c-.584.523-1.462.448-1.973-.225-.512-.6-.439-1.497.22-2.021l3.58-3.07a20.166 20.166 0 0 1 26.317 0l2.704 2.321 2.705-2.32a20.166 20.166 0 0 1 26.316 0l2.705 2.32 2.704-2.32a20.166 20.166 0 0 1 26.316 0l3.582 3.069c.585.524.658 1.422.22 2.02-.512.375-.878.525-1.317.525ZM50.073 10.928c-.804 0-1.389-.674-1.389-1.422V1.422C48.684.6 49.342 0 50.074 0c.803 0 1.388.674 1.388 1.422v8.084c0 .748-.658 1.422-1.389 1.422Z"/><path fill="#000" d="M50.292 60.03c-.804 0-1.389-.674-1.389-1.422V44.76c0-.824.658-1.423 1.389-1.423.73 0 1.389.674 1.389 1.422v13.848c0 .748-.658 1.422-1.39 1.422Z"/><path fill="#B4C88C" d="M30.19 32.186c-3.51 0-6.36-2.92-6.36-6.512 0-3.593 2.85-6.512 6.36-6.512 3.508 0 6.36 2.919 6.36 6.512 0 3.593-2.852 6.512-6.36 6.512Zm0-10.105c-1.974 0-3.509 1.647-3.509 3.593s1.608 3.593 3.509 3.593c1.973 0 3.508-1.647 3.508-3.593s-1.535-3.593-3.508-3.593ZM68.275 99.925H32.383c-.365 0-.804-.15-1.023-.449-.292-.3-.366-.748-.366-1.123l.805-7.485c.073-3.069 2.485-5.539 5.482-5.539h8.26v-2.62c-3.29-2.32-5.336-6.886-5.336-11.975 0-.45 0-.824.073-1.273.073-1.497.366-2.994.877-4.341 1.608-4.79 5.19-7.934 9.138-7.934 3.947 0 7.529 3.068 9.137 7.934.366 1.048.585 2.17.731 3.368.073.823.146 1.572.146 2.246 0 4.94-1.973 9.43-5.116 11.826v2.77h8.26c2.997 0 5.409 2.47 5.482 5.538l.804 7.485c.073.375-.073.824-.365 1.123a1.47 1.47 0 0 1-1.097.45Zm-34.283-2.844H66.74l-.658-5.913v-.15c0-1.497-1.17-2.695-2.631-2.695H53.8c-.804 0-1.388-.673-1.388-1.422v-5.015c0-.524.292-.973.657-1.272 2.705-1.647 4.46-5.54 4.46-9.806 0-.598-.073-1.197-.147-1.87a16.957 16.957 0 0 0-.658-2.77c-1.242-3.593-3.728-5.988-6.505-5.988-2.705 0-5.264 2.32-6.506 5.988-.366 1.122-.658 2.395-.731 3.592 0 .375-.073.674-.073 1.048 0 4.342 1.827 8.309 4.605 9.88.439.225.731.75.731 1.273v4.865c0 .824-.658 1.423-1.39 1.423h-9.648c-1.462 0-2.632 1.197-2.632 2.694v.15l-.584 5.988Z"/></svg>