<svg xmlns="http://www.w3.org/2000/svg" width="100" height="100" fill="none"><path fill="#B4C88C" d="M50.075 39.94a8.222 8.222 0 0 1-8.233-8.259 8.222 8.222 0 0 1 8.233-8.258 8.222 8.222 0 0 1 8.234 8.258c.075 4.58-3.668 8.259-8.234 8.259Zm0-13.664c-2.919 0-5.389 2.402-5.389 5.405 0 2.928 2.395 5.406 5.39 5.406a5.375 5.375 0 0 0 5.389-5.406c0-2.928-2.396-5.405-5.39-5.405Z"/><path fill="#000" d="M50.225 99.4a1.423 1.423 0 0 1-1.422-1.427V62.087c0-.826.673-1.426 1.422-1.426.823 0 1.422.675 1.422 1.426v35.886c0 .75-.599 1.426-1.422 1.426Z"/><path fill="#000" d="M50.075 63.514c-4.341 0-6.886-6.832-7.335-14.04-5.464 4.73-12.051 7.733-15.045 4.73-1.572-1.576-1.647-4.354-.15-7.733 1.048-2.402 2.695-4.954 4.865-7.357-7.185-.525-13.997-3.078-13.997-7.357 0-4.355 6.812-6.907 13.997-7.358-2.17-2.477-3.817-5.03-4.865-7.357-1.497-3.378-1.422-6.156.15-7.733 3.069-3.078 9.655 0 15.045 4.73C43.264 6.832 45.809 0 50.075 0c4.342 0 6.886 6.832 7.336 14.04 5.464-4.73 12.05-7.734 15.045-4.73 3.069 3.077 0 9.684-4.716 15.09 7.186.525 13.997 3.078 13.997 7.357s-6.811 6.907-13.997 7.357c4.716 5.406 7.71 12.087 4.716 15.09-3.07 3.078-9.656 0-15.045-4.73-.45 7.208-2.994 14.04-7.336 14.04ZM44.162 44.67c.15 0 .374 0 .524.075.524.225.898.75.898 1.351V46.772c0 8.408 2.695 13.739 4.566 13.739s4.566-5.33 4.566-13.74v-.675c0-.6.374-1.126.898-1.351.524-.225 1.198-.075 1.572.3l.45.526c5.912 5.93 11.601 7.807 12.874 6.456 1.272-1.351-.524-6.982-6.438-12.913l-.299-.3-.15-.15c-.449-.45-.599-1.051-.3-1.577.225-.526.75-.976 1.348-.9H65.345c8.383 0 13.698-2.703 13.698-4.58 0-1.877-5.315-4.58-13.698-4.58h-.674a1.479 1.479 0 0 1-1.347-.9c-.225-.526-.075-1.202.3-1.577l.224-.226c.075-.075.224-.15.3-.3 2.769-2.778 4.865-5.706 5.987-8.408.899-2.102 1.123-3.904.45-4.58-.674-.676-2.396-.45-4.566.45-2.695 1.127-5.614 3.304-8.384 6.006-.075.076-.224.226-.3.3l-.224.226c-.449.45-1.048.526-1.572.3a1.483 1.483 0 0 1-.898-1.351v-.75c0-8.41-2.694-13.74-4.566-13.74-1.871 0-4.566 5.33-4.566 13.74v.675c0 .6-.374 1.126-.898 1.351-.524.226-1.197.075-1.572-.3l-.15-.15a845.99 845.99 0 0 0-.299-.3c-2.77-2.778-5.689-4.88-8.383-6.006-2.096-.901-3.893-1.052-4.566-.45-.674.675-.45 2.401.449 4.579 1.123 2.702 3.293 5.63 5.988 8.408l.3.3.224.226c.45.45.524 1.05.3 1.576-.225.526-.749.901-1.348.901h-.674c-8.383 0-13.697 2.703-13.697 4.58 0 1.877 5.314 4.58 13.697 4.58h.675c.598 0 1.122.375 1.346.9.225.526.075 1.201-.299 1.577l-.225.15-.299.3c-2.77 2.778-4.865 5.706-5.988 8.409-.898 2.102-1.123 3.903-.45 4.579 1.348 1.276 6.962-.525 12.875-6.456l.45-.526c.374-.3.748-.45 1.197-.45Z"/><path fill="#B4C88C" d="M50.225 100H50c-1.647-.225-39.67-5.78-39.67-25.9 0-17.869-9.133-22.974-9.582-23.124-.598-.3-.898-1.05-.673-1.727.224-.675.898-1.126 1.571-.976 1.647.226 39.672 5.781 39.672 25.901 0 17.868 9.131 22.973 9.58 23.123.6.3.899 1.051.674 1.727-.15.6-.748.976-1.347.976ZM6.437 52.102c3.144 3.679 6.811 10.436 6.811 22.072 0 13.589 21.782 19.82 32.037 22.072-3.144-3.678-6.812-10.435-6.812-22.072 0-13.588-21.856-19.895-32.036-22.072Z"/><path fill="#B4C88C" d="M49.776 100c-.599 0-1.198-.376-1.347-.976a1.395 1.395 0 0 1 .748-1.727c.374-.225 9.506-5.255 9.506-23.123 0-20.12 38.024-25.676 39.671-25.901.674-.075 1.348.3 1.572.976a1.395 1.395 0 0 1-.748 1.727c-.375.225-9.507 5.255-9.507 23.123 0 20.12-38.024 25.675-39.67 25.9h-.225Zm43.788-47.898c-10.18 2.177-32.036 8.483-32.036 22.072 0 11.636-3.668 18.393-6.812 22.072 10.18-2.177 32.036-8.484 32.036-22.072 0-11.637 3.668-18.469 6.812-22.072Z"/></svg>