<svg xmlns="http://www.w3.org/2000/svg" width="100" height="100" fill="none"><path fill="#000" d="M32.585 42.75c-.35 0-.715-.132-.992-.399l-2.175-2.041c-.584-.562-.627-1.494-.073-2.086a1.428 1.428 0 0 1 2.058-.074l2.175 2.041c.583.563.627 1.495.073 2.086-.292.311-.672.474-1.066.474ZM30.673 52.648a1.43 1.43 0 0 1-1.051-.459l-5.896-6.213a1.488 1.488 0 0 1 .044-2.086 1.44 1.44 0 0 1 2.058.044l5.896 6.214c.554.591.54 1.523-.044 2.085a1.493 1.493 0 0 1-1.007.415ZM24.762 57.9c-.379 0-.744-.148-1.036-.43L9.614 43.136c-3.167-3.21-4.933-7.44-5.05-11.982L.536 27.808a1.494 1.494 0 0 1-.204-2.086 1.447 1.447 0 0 1 2.058-.207l4.568 3.787c.35.281.54.71.54 1.169-.059 4.01 1.43 7.767 4.203 10.578l14.112 14.335c.57.577.57 1.509 0 2.086a1.545 1.545 0 0 1-1.05.429ZM45.267 32.853c-.38 0-.744-.147-1.036-.428l-7.545-7.664a1.48 1.48 0 0 1-.277-1.686 1.49 1.49 0 0 1 1.488-.829l7.779.947a2.26 2.26 0 0 0 2.51-2.012l.059-.532c.146-1.258-.745-2.412-1.985-2.56l-20.126-2.44a18.379 18.379 0 0 0-6.436.162 1.47 1.47 0 0 1-1.27-.355l-4.071-3.772a1.475 1.475 0 0 1-.088-2.086 1.428 1.428 0 0 1 2.058-.089l3.546 3.284a21.177 21.177 0 0 1 6.7-.044l20.052 2.426c2.83.34 4.874 2.959 4.538 5.844l-.058.532a5.213 5.213 0 0 1-1.941 3.506 5.103 5.103 0 0 1-3.81 1.095l-3.604-.429 4.568 4.645c.57.577.57 1.51 0 2.086-.306.252-.686.4-1.05.4ZM37.503 36.286c-.35 0-.686-.118-.963-.37l-1.46-1.302a1.49 1.49 0 0 1-.116-2.085 1.442 1.442 0 0 1 2.057-.119l1.46 1.302a1.49 1.49 0 0 1 .116 2.086c-.291.31-.685.488-1.094.488ZM67.699 42.203c-.38 0-.76-.147-1.051-.458a1.488 1.488 0 0 1 .044-2.086l1.532-1.494a1.44 1.44 0 0 1 2.058.044c.554.592.54 1.524-.044 2.086l-1.532 1.494a1.465 1.465 0 0 1-1.007.414ZM73.347 47.84c-.394 0-.788-.163-1.08-.489a1.49 1.49 0 0 1 .102-2.085l1.518-1.406a1.441 1.441 0 0 1 2.058.104 1.49 1.49 0 0 1-.103 2.086l-1.517 1.405a1.407 1.407 0 0 1-.978.385ZM74.88 57.9c-.38 0-.745-.148-1.037-.43a1.487 1.487 0 0 1 0-2.085L87.955 41.05c2.773-2.811 4.262-6.569 4.204-10.578 0-.385.131-.754.394-1.036l4.933-5.266a1.44 1.44 0 0 1 2.057-.06c.584.563.613 1.495.059 2.087l-4.525 4.837c-.087 4.586-1.853 8.862-5.05 12.102L75.916 57.47a1.51 1.51 0 0 1-1.036.429Z"/><path fill="#000" d="M54.651 32.587c-.379 0-.744-.148-1.036-.429a1.488 1.488 0 0 1 0-2.085l4.305-4.365-3.604.43a5.068 5.068 0 0 1-3.81-1.095 5.213 5.213 0 0 1-1.94-3.506l-.059-.533c-.335-2.885 1.693-5.503 4.54-5.844l19.92-2.411c2.38-.355 4.627-.34 6.787.015L83.11 9.36a1.44 1.44 0 0 1 2.058 0c.57.577.57 1.51 0 2.086l-3.897 3.965c-.35.355-.846.503-1.328.4-2.058-.43-4.232-.474-6.436-.163l-.204.03-19.921 2.41c-1.24.149-2.131 1.302-1.985 2.56l.058.532c.073.607.38 1.154.847 1.539a2.197 2.197 0 0 0 1.663.473l7.78-.946a1.447 1.447 0 0 1 1.488.828c.277.577.16 1.243-.277 1.687l-7.268 7.382a1.415 1.415 0 0 1-1.037.443ZM61.949 36.744c-.365 0-.715-.133-.993-.4a1.503 1.503 0 0 1-.073-2.085l1.635-1.775a1.454 1.454 0 0 1 2.058-.074c.583.562.613 1.494.073 2.086l-1.635 1.775a1.43 1.43 0 0 1-1.065.473Z"/><path fill="#B4C88C" d="M69.26 63.137c-.802 0-1.459-.651-1.459-1.465l-.073-12.234c-.014-1.45-1.153-2.619-2.54-2.634h-.014c-.642 0-1.255.252-1.722.725a2.59 2.59 0 0 0-.744 1.835l.073 12.234c0 .814-.642 1.48-1.445 1.494-.876-.015-1.46-.65-1.474-1.464l-.073-12.235a5.513 5.513 0 0 1 1.59-3.95c1.022-1.035 2.394-1.612 3.81-1.597 2.977.014 5.429 2.515 5.444 5.577l.073 12.234c.029.814-.628 1.48-1.445 1.48 0 0 .014 0 0 0Z"/><path fill="#B4C88C" d="M61.336 63.092c-.803 0-1.46-.651-1.46-1.465l-.117-18.344c-.014-1.45-1.153-2.618-2.54-2.633h-.014c-.642 0-1.255.251-1.722.725a2.59 2.59 0 0 0-.744 1.834l.117 18.344c0 .814-.642 1.48-1.445 1.495h-.015c-.803 0-1.46-.651-1.46-1.465l-.116-18.344a5.513 5.513 0 0 1 1.59-3.95 5.277 5.277 0 0 1 3.78-1.598h.03c2.977.015 5.429 2.515 5.444 5.577l.116 18.344a1.452 1.452 0 0 1-1.444 1.48Z"/><path fill="#B4C88C" d="M53.397 63.033c-.803 0-1.46-.651-1.46-1.465l-.131-22.427c-.015-1.45-1.153-2.618-2.54-2.633h-.014c-.642 0-1.255.251-1.722.725a2.59 2.59 0 0 0-.745 1.834l.132 22.427c0 .814-.642 1.48-1.445 1.495h-.015c-.802 0-1.46-.651-1.46-1.465l-.13-22.427a5.513 5.513 0 0 1 1.59-3.95c1.022-1.036 2.335-1.613 3.81-1.598 2.977.015 5.428 2.515 5.443 5.577l.131 22.428c.03.813-.627 1.479-1.444 1.479.014 0 .014 0 0 0ZM64.517 92.857h-.014a1.484 1.484 0 0 1-1.445-1.495l.088-5.902c0-.385.16-.755.438-1.036 2.801-2.781 4.32-6.524 4.305-10.533l-.117-20.386c0-.813.642-1.479 1.445-1.494h.014c.803 0 1.46.651 1.46 1.465l.117 20.386c.029 4.6-1.65 8.905-4.744 12.22l-.072 5.31c-.03.829-.672 1.465-1.475 1.465Z"/><path fill="#B4C88C" d="M43.983 92.857h-.029c-.802-.015-1.445-.695-1.43-1.509l.073-3.462a22.44 22.44 0 0 1-4.714-4.793L25.376 66.79c-1.766-2.293-1.387-5.621.832-7.411l.408-.34a5.034 5.034 0 0 1 3.78-1.08 5.12 5.12 0 0 1 3.488 1.997l2.218 2.9-.116-19.75a5.513 5.513 0 0 1 1.59-3.95 5.287 5.287 0 0 1 3.78-1.598h.03c2.977.015 5.414 2.515 5.443 5.577l.117 13.906c0 .814-.642 1.48-1.445 1.495h-.014c-.803 0-1.46-.651-1.46-1.465l-.117-13.906c-.014-1.45-1.152-2.633-2.539-2.633-.642.014-1.27.251-1.737.725a2.59 2.59 0 0 0-.744 1.834l.146 24.114c0 .636-.394 1.198-.978 1.405a1.451 1.451 0 0 1-1.634-.488l-4.86-6.332a2.27 2.27 0 0 0-1.533-.873 2.095 2.095 0 0 0-1.605.459l-.409.34c-.977.784-1.123 2.249-.35 3.27l12.551 16.361c1.343 1.835 2.904 3.373 4.67 4.572.409.28.657.754.642 1.257l-.087 4.246a1.464 1.464 0 0 1-1.46 1.435Z"/></svg>